<?xml version="1.0" encoding="UTF-8"?>
<svg id="Capa_1" data-name="Capa 1" xmlns="http://www.w3.org/2000/svg" viewBox="0 0 547.9 505.91">
  <path d="M186.82,393.43c-4.93.68-8.24,7.12-10.21,10.8-5.76,10.79-9.44,21.79-21.07,26.67-5.59,2.35-8.78-.43-12.54-3.96-1.1-1.04-4.02-1.94-4.31-3.44-.46-2.4,1.02-4.18,2.38-5.92.99-1.27.95-5.26.06-6.55-1.06-1.54-2.37-3.44-2.2-5.05.18-1.7,2.4-3.08,4.11-3.86l6.59-19.67c5.59-16.67-1.31-17.34-.34-22.2.49-2.45,3.67-2.01,5.32-3.22,7.9-5.78,18.1-6.15,25.7.85,18.56,0,27.07-4.88,43.72-9.68l-4.06-11.3c-1.86,1.14-4.39,2.42-5.84,2.02-1.92-.53-3.34-2.65-3.64-4.74-2.28-15.84-6.14-30.58-12.27-45.2-4.56-10.86-4.33-22.48-.36-33.42-4.26-10.07-1.89-18.83,8.26-23.84,2.46-5.96,4.3-11.85,5.61-18-7.34.39-14.1.27-20.39.94l-42.32,16.79c-3.36,12.52-16.36,16.48-27.71,18.25-8.76,1.36-13.63-13.89-14.44-20.8-.91-7.76,3.37-14.52,11-17.24,30.38-10.8,31.66-23.83,62.47-27.07,1.94-1.9,4.32-3.64,6.89-4.41,20.38-6.11,37.22-11.57,59.63-10.41-4.71-17.18-1.12-35.77,17.94-40.95,7.22-1.97,14.53-1.55,22-.55,23.57,3.16,17.7,39.53,14.97,56.36l17.54,4.02c3.64.83,6.36,2.88,8.37,5.64,10.72,3.34,21.2,7.13,29.36,14.95,10.47,10.02,5.86,16.44,1.14,27.81,21.43,5.5,42.43,7.78,64.04,8.4,5.3.15,10.44.88,15.16,2.53s6.78,6.07,4.88,10.66c-1.77,4.28,2.27,5.24-.18,8.96-.9,1.36-3.08,1.43-5.11,2.11-2.33.79-6.29,4.03-7.55,6.14-1.16,1.93-1.89,3.56-2.82,4.58-1.58,1.73-4.61-1.16-6.09-.92l-19.58,3.16c-4.87.79-10.07,2.36-13.64,5-.42,2.68-1.11,4.78-3.04,5.7-2.32,1.11-4.19-1.45-5.93-1.83-4.79-1.05-9.38-1.09-12.47-5.95-2.02-3.18-3.39-7.14-4.32-11.36-14.27,1.03-28.25,1.91-42.54,2.18-6.46.12-12.29-2.57-17.41-4.88l-16.81,6.5c.44,1.53.99,3.55,1.26,4.8s-1.84,3.36-3.14,3.71c-8.39,2.26-15.94,4.54-24.13,7.83l9.01,23.42c.49,1.29-.13,4.54.13,5.87l6.64,33.74c3.61,18.33-8.39,31.97-25.76,35.87-16.77,3.76-39.65-2.92-61.96.15ZM285.59,145.68l8.41,1.85c-.5-3.34-1.41-7.92-4.76-9.12-6.42-2.32-13.74-2.33-20.44-1.3-11.38,1.75-16.19,11.71-14.51,22.94,3.19-6.03,9.1-8.63,15.33-5.28,3.03-6.24,8.8-10.67,15.96-9.09ZM281.19,190.38c5.68.57,9.87-2.74,11.35-8.01,2.27-8.06,2.87-17.13,2.8-25.53-4.24-.8-7.08-1.4-10.97-2.35-8-1.94-6.7,11.16-11.52,11.96-5,.83-4.74-3.54-9.3-4.36-1.79,6.63-2.45,12.57-1.55,19.17,5.48,4.87,11.58,8.35,19.19,9.11ZM205.4,245.66c21.17-8.45,42.69-13.47,65.5-14.71,3.25-5.31,6.05-10.18,8.91-15.78-5.95,1.21-9.81,1.8-14.72.84-4.59-2.23-7.68-5.77-10.55-9.85-5.65-8.03-8.14-16.76-7.35-27.2-19.79-1.89-39.73,4.18-58.21,10.26l6.26,16.3,29.47-1.43c2.99-.15,5.13,2.12,4.99,4.69-.38,6.77-7.62,1.65-8.97,6.96-1.58,6.23-3.25,11.93-5.5,17.84-3.2,8.38-10.45,6.72-9.82,12.08ZM282.27,199.72c-10.28-.72-17.8-5-25.66-10.64,1.73,6.42,4.81,13.61,10.41,17.33,5.27,3.51,13.77-.95,15.25-6.69ZM146.25,223l39.71-16-5.2-13.43c-27.41,2.54-31.33,17.12-59.2,26.07-2.09.67-5.28,3.03-5.54,5.05-.79,6.13,1.5,11.06,4.71,16.08,25.68-4.16,14.93-13.51,25.51-17.77ZM300.21,207.69l15.13-1.18,3.11-8.71-21.2-4.9-4.61,4.29c-.93,5.23-3.03,9.44-6.79,13.75,9.24,4.57,5.82-2.57,14.36-3.24ZM300.38,227.26c18.31-2.17,31.89,2.8,48.79,7.54l4.71-10.46c4.09-9.07-20.38-19.71-27.35-20.72-1.01,1.19-1.69,3.19-1.65,4.8,8.05,3.46,18.49.78,18.98,7.1.71,9.38-20.58,1.77-25.57-.13l-18,1.33c-.74,3.67-.8,6.97.09,10.52ZM291.29,228.76l-.85-6.82c-.12-.92-3.48-1.01-3.95-.09l-4.39,8.56c4.14.26,6.66-.44,9.2-1.65ZM282.45,268.98l13.77-5.06c-3.07-10.59.78-19.12,7.35-27.89-5.79.77-10.18,1.75-15.4,2.97-6.76,7.81-8,20.27-5.72,29.98ZM358.25,265.27c6.87-.4,26.05-3.84,24.08-14.04-14.9-2.39-28.84-5.83-43.32-9.83-6.08-1.68-12.82-4.77-19.36-4.2-8.34.73-14.4,10.8-15.39,18.24-.7,5.25,2.34,9.16,6.83,10.48,3.37.99,7.24,1.68,10.88,1.46l36.28-2.12ZM217.31,300.17c.2-2.51,2.29-3.93,5.11-4.04,7.6-.29,14.63-2.44,21.61-5.45,10.41-4.48,20.72-8.44,31.48-11.64-1.86-6.87-2.86-13.55-3.12-20.46.36-6.41,1.49-11.89,4.31-18.82-23.46.34-46.45,5.5-68.09,14.29-5.54,10.15-6.15,21.48-1.77,32,5.49,13.19,9.31,26.25,11.71,41.15,12.19-7.59,24.76-10.73,38.82-11.36l-7.02-18.07c-6.09,2.79-33.92,13.56-33.04,2.38ZM419.64,269.65c6.52-2.29,11.46-6.71,13.84-13.46-3.66-1.01-7.34-1.44-11.24-1.7l-30.7-2.04c-.87,12.08-10.35,17.06-21.03,19.82.24,2.93.99,6.48,3.22,8.79,1.4,1.45,5.12.54,6.83-.48,16.08-9.62,25.09-6.04,39.08-10.95ZM253.37,381.97c9.38-3.61,14.38-12.88,12.32-23.04l-6.89-34.05c-10.79.08-20.13,2.22-29.56,6.64.59,25.56,22.13,11.98,24.13,50.44ZM244.08,385.05c.49-11.52-1.65-23.19-12.8-28.54-5.62.66-10.96,1.87-16.27,3.87-9.97,3.76-19.85,6.02-30.68,6.22-2.03,5.78-1.7,12.08,1.1,17.39,21.93-1.78,37.99,2.3,58.65,1.08ZM177.17,388.17c-3.95-7.32-2.97-14.82-2.8-22.72-.83-4.35-11.23-5.54-13.13-1.36-.9,9.43-1.47,18.08-4.88,26.91s-8.44,22.82-4.37,31.51c12.46-5.14,13.84-24.38,25.18-34.34Z"/>
  <path d="M437.44,232.1c-11.04,3.86-22.12,2.04-31.97-4.61-7.85-5.31-13.63-14.82-14.9-25.52-1.55-13.03,4.48-25.34,14.4-32.59,10.97-8.02,24.92-8.84,37.05-2.94,13.26,6.46,20.66,20.03,19.63,34.69-.97,13.65-10.25,26.08-24.2,30.96ZM443.38,218.38l-4.7-2.25,2.53-13.52,11.11-7.91c-1.2-11.29-10.21-20.05-20.13-22.45-11.86-2.87-22.95,2.46-28.88,11.84-6.23,9.84-5.29,22.36,2.08,31.09l10.98-2.23,11.89,7.4-.09,4.62c5.88-.55,11.07-2.77,15.22-6.59Z"/>
  <polygon points="433.16 196.65 417.74 203.53 407.13 191.78 415.59 178 431.24 180.83 433.16 196.65"/>
</svg>