<?xml version="1.0" encoding="UTF-8"?>
<svg id="Capa_1" data-name="Capa 1" xmlns="http://www.w3.org/2000/svg" viewBox="0 0 547.9 505.91">
  <path d="M203.3,438.25c-1.57,1.89-3.63,4.02-5.29,3.69-7.66-1.5.98-6.9-12.47-9.92-1.02-.23-2.75-2.01-2.63-2.99.14-1.11.66-3.07.98-4.32,4.08-16.42,28.91-25.59,35.74-35.42l10.83-15.58c6.09-8.76,12.2-17.13,18.13-26.04,3.14-4.72,6.3-9.73,10.67-13.09,2.7-2.07,3.26-3.33,4.53-6.49,1.57-3.92,4.65-7.28,6.65-11.38-15.73-9.44-35.09-3.6-49.25-18.83-3.86-4.15-8.58-6-14.18-6.98-7.44-1.29-13.32-5.88-14.8-13.42-1.82-9.32-3.05-20.75,5.94-26.65,25.65-16.83,60.33-27.15,90.95-30l9.47-10.63c-.11-26.34-4.45-57.28-24.6-75.98-4.03-.26-9.88.45-12.88,2.84-4.8,21.63-11.42,16.63-16.77,19.32-4.38,2.2-6.52,8.64-12.76,8.97-5.59.3-10.11-2.03-14.36-5.82-6.03-5.37-11.71-10.92-15.15-18.27-5.6-11.94-1.36-25.05,10.79-30.9,23.6-11.36,43.43-13.87,69.73-13.79,9.54.03,18.43,3.68,25.82,9.35l19.07,14.62c4.89,3.75,9.59,6.97,14.48,11.75,5.79-14.79,12.75-33,31.99-28.33,7.48,1.82,14.65,3.96,21.06,8.15,10.88,7.12,15.28,19.16,11.95,31.81-2.56,9.72-8.04,18.11-14.96,25.91l15.02,14.3c2.6.02,6.02-.8,8.31-2.08-1.43-13.94.32-26.9,6.68-38.9,1.95-3.68,4.88-7,8.8-8.22,6.05-1.89,11.74,1.64,13.15,7.42,13.83-1.64,24.83,10.62,26.15,22.97,2.47,23.11-21.28,30.11-24.69,34.13l-18.16,21.48c-2.65,3.14-6.43,4.64-10.5,5.19l-19.06,2.59c-12.73,24.66-29.07,44.32-49.18,63.2-2.1,1.97-4.09,4.43-4.95,7.18-3.83,12.35-9.36,23.39-16.93,33.92s-15.21,19.9-23.99,29.02c-1.64,1.71-3.33,3.11-4.84,5.06-5.6,7.21-12.83,12.46-20.34,17.68-8.33,5.79-15.19,12.68-23.15,18.81l-10.04,7.73c-4.88,3.75-17.32,27.56-40.97,26.93ZM416.19,217.14c5.29-.72,14.49-14.34,17.97-18.31-5.94-2.74-9.98-5.06-14.76-8.2-4.91,1.56-10.93,3.37-15.89,3.05l-15.81-15.24c-13.46,10.1-29.18,21.95-45.8,15.98-6.85-2.46-10.93-8.14-9.23-14.95l4.1-16.41,1.4-17.33c.39-4.81-5.53-9.9-9.04-12.59l-24.26-18.6c-6.48-4.96-13.59-8.26-21.73-8.97-9.95.06-19.39.59-30.03,1.75,4.95,6.1,7.67,12.06,8.42,19.72,5.01-2.16,31.95-4.32,25.48,7.38,18.16,26.21,20.29,48.01,20.7,79.35.02,1.39-2.65,3.04-3.5,3.98l-8.83,9.8c3.34,24.7,21.6,49.21,43.53,61.24,21.01-19.69,39.16-40.16,51.71-66.31.73-.87,2.42-2.21,3.35-2.34l22.21-3.02ZM241.94,143.85c4.47-.18,4.52,3.32,6.15,2.44,4.38-2.34,9.71-29.97-7.53-36.45-8.19,2.37-16.03,4.87-23.57,8.52s-10.47,12.43-6.18,20.22c3.79,6.9,9.84,12.18,16.29,17.09,1.54,1.17,4.8.75,6.05-.66,5.09-5.74,5.43-11.03,8.79-11.16ZM394.28,151.59c6.59-11.94,7.38-24.19-4.12-31.86-5.23-3.49-24.59-11.58-28.44-4.73,8.12,1.32,15.18,3.65,21.23,8.43,7.08,5.6,9.97,14.65,6.26,23.4l5.06,4.76ZM387.11,158.38c-.74-4.57-8.81-4.34-9.26-8.51-.18-1.69.69-3.47,1.9-4.93,3.14-3.79,2.55-9.92-1.35-13.42-6.01-5.38-15.12-8.65-23.38-6.64-5.24,10-7.86,21.63-9.03,32.84-.71,6.77,3.47,11.88,9.69,13.31,14.89,3.41,32.81-4.13,31.43-12.66ZM444.4,151.79c-2.23.78-4.69.78-6.62-.49-3.87-2.55-2.16-8.9-4.3-7.88-.55.27-1.84,1.12-2.3,1.85-6.83,10.87-8.79,24.94-6.57,37.74,5.14,3.9,9.97,6.31,16,8.2,10.1-5.56,22.34-11.81,20.54-24.93-1.18-8.59-8.94-17.22-16.74-14.49ZM367.11,181.08c-9.41.09-17.02-.83-24.03-6.54-1.14,3.08-2.03,6.56-1.01,9.28,2.05,5.47,21,2.52,25.04-2.74ZM296.28,356.05c8.85-9.93,16.45-19,23.72-29.1,6.31-9.51,11.59-19.11,14.86-30.34-24.51-13.57-43.39-38.54-48.22-66.57-13.67,1.66-26.18,4.3-39.07,8.18-2.59,14.02-1.39,28,4.05,41.62,10.78-2.09,21.33-3.01,32.46-2.15,2.29.18,3.89,2.37,4.04,4.59.31,17.95-5.54,34.69-16.1,49.13,4.12,11.44,12.47,20.45,24.27,24.65ZM237.54,297.75c4.07.16,7.59-3.28,9.19-6.51-1.38.07-2.77.2-3.84.41-3.27.66-5.84-.78-6.07-3.88-.2-2.74,1.74-4.78,5.86-5.2-4.71-13.28-6.65-26.53-4.88-40.91-12.29,4.29-23.3,9.56-34.07,16.27-1.87,1.17-3.06,3.34-3.83,5.42.25,5.35,0,10.48,2.42,15.31,1.19,2.37,5.48,3.48,7.96,3.91,17.14,2.99,19.12,14.85,27.24,15.17ZM274.69,308.18c2.68-7.78,3.95-14.13,4.32-21.78-7.99-.12-14.99.46-22.73,1.72-.02,5.47-2.36,9.23-5.62,13.19,8.86,1.41,16.31,3.25,24.03,6.87ZM283.01,369.01c2.48-.88,4.62-4.18,6.35-5.91-10.17-5.17-17.61-12.19-23.3-22.72-4.97,4.65-8.17,9.53-11.83,15.15,2.57,3.82,4.86,7.55,8.51,10.2,5.48,3.97,13.44,5.73,20.27,3.29ZM241.4,402.32l8.08-6.58c6.24-6.47,13.12-11.47,20.89-17.06-9.25-2.08-16.26-6.9-21.23-14.59l-11.83,15.85c-2.7,3.39-5.05,6.85-7.51,10.68,5.74,2.78,8.6,6.11,11.59,11.7ZM232.98,410.6c1.29-5.35-3.66-12.58-9.48-11.84l-28.81,22.37c-1.53,1.19-.86,3.42.33,4.72,14.23,9.51,29.51-3.76,37.96-15.24Z"/>
  <path d="M147.85,97.79c21.31-1.79,39.15,14.04,41,34.33s-13.68,39.65-34.65,41.37-39.35-13.57-41.01-34.41c-1.65-20.72,12.77-39.46,34.65-41.3ZM122.5,130.93l5.56-1.58,6.93,12.89c-1.09,4.74-2.57,9.48-4.11,14.21,8.74,8.69,22.41,10.74,33.68,4.83,10.61-5.57,17.11-17.29,15.08-29.98-1.83-11.42-10.34-21.88-22.82-24.02l-8.04,9.61-14.76,1.76-2.84-4.21c-4.86,4.56-8.02,10.41-8.69,16.49Z"/>
  <polygon points="173.29 145.62 158.35 153.59 146.33 141.81 154.33 125.98 170.99 128.44 173.29 145.62"/>
</svg>