<?xml version="1.0" encoding="UTF-8"?>
<svg id="Capa_1" data-name="Capa 1" xmlns="http://www.w3.org/2000/svg" viewBox="0 0 547.9 505.91">
  <defs>
    <style>
      .cls-1 {
        fill: #fff;
      }
    </style>
  </defs>
  <path d="M472.92,306.69v24.01c-.29.46-.52,1.55-.59,2.38-7.01,82.68-73.07,148.75-155.74,155.75-.84.07-1.93.29-2.38.58h-24.01c-84.48-7.13-152.21-73.14-158.42-159.33-2.74-38.04,8.35-77.83,30.86-109.47,30.03-42.23,76.67-68.83,128.41-72.3,7.55-.51,14.85-.52,21.86-.05,86.48,5.84,152.86,73.72,160,158.44ZM318.26,211.86l62.16-6.3-.04-22.22c-32.46-18.72-69.77-25.37-106.61-18.36l.06,21.65,44.42,25.25ZM427.65,262.65l21.91,4.14c-10.3-29.5-29.21-55-54.67-73.84l-.17,17.1,32.93,52.6ZM283.41,269.33l23.6-47.42-39.81-22.76-48.73,36.54,17.06,39.75,47.88-6.11ZM223.08,282.34l-18.4-42.64-33.9-5.64c-20.08,31.21-28.83,68.27-23.46,105.65l43.97-6.3,31.79-51.08ZM441.46,389.78c17.13-33.7,21.64-71.35,12.75-107.42l-26.55-5.23-18.61,49.66,6.31,63.07,26.1-.07ZM304.04,390.28l18.7-56.07-37.95-50.6-49.57,6.26-31.44,50.47,31.32,56.24,68.94-6.29ZM352.59,423.74l48.76-30.46-5.94-59.68-59.48,5.98-18.32,55,34.98,29.16ZM338.43,470.75l5.89-35.4-37.28-31.04-71.39,6.52-19.24,38.58c36.16,23.71,79.95,31.61,122.02,21.34Z"/>
  <polygon class="cls-1" points="304.04 390.28 235.1 396.57 203.78 340.33 235.22 289.86 284.79 283.6 322.74 334.21 304.04 390.28"/>
  <path class="cls-1" d="M338.43,470.75c-42.06,10.27-85.86,2.37-122.02-21.34l19.24-38.58,71.39-6.52,37.28,31.04-5.89,35.4Z"/>
  <path class="cls-1" d="M223.08,282.34l-31.79,51.08-43.97,6.3c-5.36-37.38,3.38-74.44,23.46-105.65l33.9,5.64,18.4,42.64Z"/>
  <polygon class="cls-1" points="352.59 423.74 317.61 394.57 335.93 339.58 395.41 333.6 401.35 393.28 352.59 423.74"/>
  <path class="cls-1" d="M441.46,389.78l-26.1.07-6.31-63.07,18.61-49.66,26.55,5.23c8.89,36.08,4.38,73.73-12.75,107.42Z"/>
  <polygon class="cls-1" points="283.41 269.33 235.53 275.44 218.48 235.7 267.21 199.15 307.02 221.91 283.41 269.33"/>
  <path class="cls-1" d="M318.26,211.86l-44.42-25.25-.06-21.65c36.84-7,74.15-.36,106.61,18.36l.04,22.22-62.16,6.3Z"/>
  <path class="cls-1" d="M427.65,262.65l-32.93-52.6.17-17.1c25.46,18.84,44.37,44.35,54.67,73.84l-21.91-4.14Z"/>
</svg>