<?xml version="1.0" encoding="UTF-8"?>
<svg id="Capa_1" data-name="Capa 1" xmlns="http://www.w3.org/2000/svg" viewBox="0 0 547.9 505.91">
  <defs>
    <style>
      .cls-1 {
        fill: #fff;
      }
    </style>
  </defs>
  <path d="M426.77,503.35c-.14-3.74.46-7.29.76-11.44l5.73-77.32-28.76.09.08,89.19c-4.94.15-10,.73-15.09.3l-.24-4.98-.33-84.68-27.59-.02,3.01,35.97,3.61,52.86c-1.25-.39-12.47,1.56-15,1.53l-5.37-71.18-1.69-18.88-14.1-.08-1.57,17.28-5.34,73.04-13.48-1.48c-.6-.07-1.18-.04-1.44-.31-.3-.31-.07-.83-.24-1.2l4.68-63.78,1.71-23.65h-28.83s.06,89.27.06,89.27c-4.94.17-9.82.3-14.73,0l-.68-89.44-27.63.16,1.81,24.74,1.36,13.88,3.61,50.13c-2.3-.8-5.75.68-8.06.89l-6.97.62-4.95-64.46-2.19-25.55-13.78-.05-2.64,34.56-4.18,55.71-14.87-1.73,4.36-62.94c.61-8.82,1.67-16.99,1.78-25.81l-28.46.06-.11,89.2c-5.04.17-10.02.35-15.08.04l-.26-89.29-27.93-.1,2.88,36.44,3.93,52.77c-3.15-.73-11.02,1.37-15.17,1.13l-4.86-64.44-2.17-25.53-7.03-.23c-2.72-.09-4.75-.74-6.5-2.51s-1.88-3.89-1.88-6.68l-.12-67.31-6.25-13.29-21.14-47.87c-3.88-8.77-6.83-17.42-7.61-27.04-1.07-13.18-.83-26.01-.4-39.21.39-11.99,4.58-23.17,12.35-32.04,10.77-12.28,25.5-18.16,41.64-18.12l20.64.06,4.17-13.29-10.46-11.01c-10.59-11.14-12.9-33.11-8.7-48.04,3.35-11.89,11.47-21.78,22.64-27.34,5.28-2.63,11.16-4.91,17.25-4.93l39.86-.15c3.18-.01,7.46,2.36,7.45,6.04l-.16,49.38c-.03,8.91-4.01,16.96-9.24,23.95-3.39,4.53-7.82,7.68-11.62,12.21l4.15,13.1,60.4-.05c2.56-4.56,4.53-8.62,5.83-13.17l-10.9-11.24c-10.49-10.83-12.66-33.75-8.06-48.23,5.6-17.64,20.73-30.38,39.73-31.76,13.49-.98,26.61.06,40.32-.2,3.23-.06,7.02,3.39,7.01,6.43l-.05,42.81c-.02,12.1-3.14,23.64-11.66,32.39l-9.5,9.75c.79,3.51,3.77,11.5,6.79,13.4l58.88-.13,4.29-13.04-10.25-10.9c-11.07-11.77-13.06-34.79-8.14-49.88,3.01-9.24,8.73-16.81,16.67-22.46,8.78-6.25,19.31-8.69,30.16-8.54l34.32.49c2.16.03,5.36,3.42,5.35,5.71l-.1,45.31c-.02,10.45-2.72,20.92-10.03,28.55l-11.03,11.51c.84,4.63,2.87,8.94,4.69,13.13l26.74.53c25.27.5,45.36,21.97,46.95,47.62.79,12.74.29,25.14.06,38.04-.19,10.85-3.41,20.96-7.82,30.89l-26.42,59.47c-.85,1.92-3.36,4.74-3.38,6.76l-.49,65.1c-.02,2.53-2.89,4.89-4.85,5.5-2.9.9-5.41.12-8.23.44l-2.78,36.83-4.16,53.38-14.97-1.63ZM287.51,88.7l23.03-2.35-.05-15.66-32.8.62c-11.57.22-20.94,9.93-24.46,21l34.28-3.6ZM157.81,89.81l19.37-1.75,16.29-1.85-.02-15.38-33.04.36c-3.92.04-7.14,1.75-10.4,3.38-6.64,3.32-12.63,10.26-13.92,17.7l21.71-2.46ZM416.47,87.51l11.12-1.29.08-15.38-28.65.14c-13.58.06-24.36,8.03-28.75,21.17l19.17-2.09,27.03-2.55ZM148.8,169.64c3.84,2.93,6.84,6.06,10.54,8.43s7.66.06,10.42-2.2,5.92-3.87,8.44-6.64l-6.64-20.86c-1.3-4.08.05-8.11,3.66-10.44l8.64-8.77c7.19-7.3,10.68-17.15,9.31-27.45l-27.57,2.57-31.21,3.27c.58,9.97,2.99,14.84,9.1,21.69,3.35,2.67,5.77,5.97,8.78,8.79,2.37,2.22,4.15,4.41,4.01,8.24-.85,4.46-2.87,8.82-4.26,13.22l-3.21,10.14ZM273.25,168.04c3.56,3.85,8.82,4.23,12.92.88,2.27-1.85,4.36-3.53,7.31-4.98-.2-2.53-1.09-4.64-2.11-6.76s-1.19-4.24-2.02-6.67c-1-2.92-2.01-7.27.29-9.85,10.9-12.21,22.76-17.47,20.55-38.95l-27.62,2.58-30.75,3.2c.8,13.96,4.22,16.28,12.03,24.34l5.57,5.76c2.54,2.62,5.18,5.76,3.83,9.72l-5.56,16.34c1.9,1.75,3.93,2.64,5.56,4.4ZM403.24,176.12c2.78-2.49,6.17-3.97,8.97-6.96l-2.88-9.41c-1.3-4.24-6.22-14.78-2.99-18.63,10.69-12.72,23.21-17.63,20.88-39.47l-32.15,3.08-26.15,2.85c1.48,13.97,3.03,15.29,11.53,23.95l6.42,6.54c2.04,2.08,4.43,5.1,3.5,8.54-2.13,7.93-5.07,15.38-7.56,22.87,7.12,5.47,12.35,13.89,20.43,6.64ZM213.93,302.36l2.82-33.71,3.44-45.18-14.36-12.74-26.46-23.74c-4.71,6.05-16.71,9.44-23.03,5.93-3.14-.24-5.34-2.11-7.79-4.03l-17.19-13.45h-16.53c-21.95-.03-39,16.65-38.3,38.59l11.37,1.83c8.74,1.41,16.96,3.23,25.85,4.59,2.33.36,4.89,3.43,5.21,5.44.43,2.66.13,5.13-.11,7.92l-6.04,68.68,101.11-.12ZM325.05,214.7c14.32-13.26,27.44-23.93,42.42-36.82-.96-.71-1.77-2.45-3.31-2.45l-61.36-.13c-3.54,2.64-6.64,5.53-10.47,7.93-9.72,6.11-20.88,4.5-28.94-3.26-1.84-1.77-4.29-2.61-6-4.61l-61.06.12c-1.49,0-2.57,1.87-3.64,2.76l40.15,36.16c2.55,2.35,3.16,4.78,2.88,8.17l-6.45,79.94,99.63-.07-3.55-42.35-3.33-40.41c.51-2.04,1.48-3.57,3.01-4.99ZM445.39,302.37l-5.01-57.25-1.62-17.61c.59-3.58,3.27-6.32,6.91-7.17l11.32-1.62c9.15-1.31,17.85-3.54,27.79-4.75.21-13.47-6.39-25.97-18.4-33.13-11.83-7.05-23.24-5.09-36.65-5.58-2.24,2.18-4.72,3.8-7.22,5.6l-14.97,10.77c-2.51,1.8-6.01,2.18-9.17,2.57-4.79.6-9.72-1.18-13.78-3.5-1.73-.99-2.64-2.74-4.8-3.55-4.27,4.16-8.62,7.59-13.11,11.46l-28.88,24.88,2.14,26.56,4.22,52.45,101.23-.11ZM97.13,301.87l2.56-24.95,3.61-42.84-26.72-4.75.02,16.24c.53,8.27,2.55,15.51,5.85,23l14.68,33.31ZM471.36,285.48l9.84-22.46c2.39-5.45,2.77-11.33,3.31-17.42l.07-16.46-29.65,5.08,4.05,44.46,2.66,27.95,9.71-21.14ZM170.95,347.39v52.27s42.68.05,42.68.05v-82.12s-101.7,0-101.7,0l.05,82.06,43.61.1v-52.54s15.36.19,15.36.19ZM286.92,347.35l.05,52.28,42.83.08-.14-82.14-100.82.02.03,82.04,42.92.1-.25-52.44,15.38.05ZM403.83,347.3l.12,52.36,42.56.07-.08-82.11h-101.44s.07,81.98.07,81.98l43.63.16-.15-52.59,15.29.13Z"/>
  <path class="cls-1" d="M309.72,502.06c-.49-.22-.55.18-.61.43-.07.31.75,1.46.37,1.51-7.59,1.01-15.01-.35-22.15-.11l-.06-89.27h28.83s-1.71,23.65-1.71,23.65l-4.68,63.78Z"/>
  <path class="cls-1" d="M193.44,503.34c2.33,1.96-23.14.53-22.43.5l.11-89.2,28.46-.06c-.1,8.82-1.17,16.99-1.78,25.81l-4.36,62.94Z"/>
  <path class="cls-1" d="M426.77,503.35c-6.91,2.1-14.79.3-22.18.52l-.08-89.19,28.76-.09-5.73,77.32c-.31,4.14-.91,7.7-.76,11.44Z"/>
  <path class="cls-1" d="M155.94,503.88c-6.98-.42-14.44,1.45-21.39-.17l-3.93-52.77-2.88-36.44,27.93.1.26,89.29Z"/>
  <path class="cls-1" d="M272.6,503.89c-7.08-.44-14.79,1.8-21.52-.54l-3.61-50.13-1.36-13.88-1.81-24.74,27.63-.16.68,89.44Z"/>
  <path class="cls-1" d="M389.5,504.18c-7.23-.62-14.8,1.24-21.54-.85l-3.61-52.86-3.01-35.97,27.59.02.33,84.68.24,4.98Z"/>
  <path class="cls-1" d="M325.05,214.7c-1.53,1.42-2.5,2.95-3.01,4.99l3.33,40.41,3.55,42.35-99.63.07,6.45-79.94c.27-3.39-.33-5.82-2.88-8.17l-40.15-36.16c1.07-.9,2.15-2.76,3.64-2.76l61.06-.12c1.71,1.99,4.16,2.83,6,4.61,8.06,7.76,19.22,9.37,28.94,3.26,3.83-2.41,6.93-5.29,10.47-7.93l61.36.13c1.53,0,2.34,1.74,3.31,2.45-14.98,12.89-28.1,23.56-42.42,36.82ZM265.1,235.13l-.06-15.01-14.92.06.02,15.25,14.96-.3Z"/>
  <path class="cls-1" d="M445.39,302.37l-101.23.11-4.22-52.45-2.14-26.56,28.88-24.88c4.49-3.87,8.84-7.3,13.11-11.46,2.15.81,3.06,2.56,4.8,3.55,4.06,2.32,8.99,4.1,13.78,3.5,3.16-.4,6.67-.77,9.17-2.57l14.97-10.77c2.5-1.8,4.98-3.41,7.22-5.6,13.41.5,24.82-1.47,36.65,5.58,12.01,7.16,18.6,19.66,18.4,33.13-9.94,1.21-18.64,3.44-27.79,4.75l-11.32,1.62c-3.64.84-6.32,3.59-6.91,7.17l1.62,17.61,5.01,57.25ZM387.99,235.16l-.15-14.98-14.95-.12-.04,15.22,15.15-.12Z"/>
  <path class="cls-1" d="M213.93,302.36l-101.11.12,6.04-68.68c.25-2.79.54-5.26.11-7.92-.32-2.01-2.88-5.08-5.21-5.44-8.89-1.36-17.11-3.18-25.85-4.59l-11.37-1.83c-.7-21.94,16.35-38.62,38.3-38.6h16.53s17.19,13.46,17.19,13.46c2.46,1.92,4.65,3.79,7.79,4.03,6.32,3.51,18.32.12,23.03-5.93l26.46,23.74,14.36,12.74-3.44,45.18-2.82,33.71ZM148.7,235.32l.09-15.01-15.2-.2.26,15.28,14.84-.07Z"/>
  <path class="cls-1" d="M170.95,347.39l-15.36-.19v52.54s-43.61-.1-43.61-.1l-.05-82.06h101.7s0,82.13,0,82.13l-42.67-.05v-52.27ZM140.97,384.93l-.13-15.29-14.86.02v15.17s15,.1,15,.1Z"/>
  <path class="cls-1" d="M403.83,347.3l-15.29-.13.15,52.59-43.63-.16-.07-81.99h101.44s.08,82.12.08,82.12l-42.56-.07-.12-52.36ZM373.74,384.71l-.11-15.01h-15.04s.1,15.22.1,15.22l15.05-.21Z"/>
  <path class="cls-1" d="M286.92,347.35l-15.38-.05.25,52.44-42.92-.1-.03-82.04,100.82-.02.14,82.14-42.83-.08-.05-52.28ZM257.54,384.84l.03-15.18-15.21.04.13,15.14h15.06Z"/>
  <path class="cls-1" d="M148.8,169.64l3.21-10.14c1.4-4.4,3.41-8.76,4.26-13.22.14-3.83-1.64-6.03-4.01-8.24-3.02-2.82-5.43-6.12-8.78-8.79-6.11-6.85-8.52-11.72-9.1-21.69l31.21-3.27,27.57-2.57c1.37,10.3-2.12,20.15-9.31,27.45l-8.64,8.77c-3.6,2.32-4.96,6.36-3.66,10.44l6.64,20.86c-2.51,2.78-5.55,4.28-8.44,6.64s-6.83,4.49-10.42,2.2-6.7-5.5-10.54-8.43Z"/>
  <path class="cls-1" d="M403.24,176.12c-8.08,7.25-13.31-1.17-20.43-6.64,2.5-7.5,5.43-14.94,7.56-22.87.92-3.44-1.46-6.46-3.5-8.54l-6.42-6.54c-8.5-8.66-10.05-9.98-11.53-23.95l26.15-2.85,32.15-3.08c2.33,21.84-10.19,26.76-20.88,39.47-3.23,3.85,1.69,14.39,2.99,18.63l2.88,9.41c-2.8,3-6.19,4.47-8.97,6.96Z"/>
  <path class="cls-1" d="M273.25,168.04c-1.63-1.77-3.66-2.65-5.56-4.4l5.56-16.34c1.35-3.96-1.3-7.1-3.83-9.72l-5.57-5.76c-7.8-8.06-11.22-10.37-12.03-24.34l30.75-3.2,27.62-2.58c2.21,21.48-9.65,26.73-20.55,38.95-2.3,2.58-1.29,6.93-.29,9.85.83,2.43,1,4.55,2.02,6.67s1.91,4.23,2.11,6.76c-2.95,1.45-5.04,3.13-7.31,4.98-4.11,3.35-9.36,2.97-12.92-.88Z"/>
  <path class="cls-1" d="M471.36,285.48l-9.71,21.14-2.66-27.95-4.05-44.46,29.65-5.08-.07,16.46c-.54,6.09-.92,11.97-3.31,17.42l-9.84,22.46Z"/>
  <path class="cls-1" d="M97.13,301.87l-14.68-33.31c-3.3-7.48-5.32-14.72-5.85-23l-.02-16.24,26.72,4.75-3.61,42.84-2.56,24.95Z"/>
  <path class="cls-1" d="M157.81,89.81l-21.71,2.46c1.28-7.44,7.27-14.39,13.92-17.7,3.26-1.63,6.48-3.34,10.4-3.38l33.04-.36.02,15.38-16.29,1.85-19.37,1.75Z"/>
  <path class="cls-1" d="M287.51,88.7l-34.28,3.6c3.52-11.06,12.89-20.78,24.46-21l32.8-.62.05,15.66-23.03,2.35Z"/>
  <path class="cls-1" d="M416.47,87.51l-27.03,2.55-19.17,2.09c4.39-13.15,15.16-21.11,28.75-21.17l28.65-.14-.08,15.38-11.12,1.29Z"/>
  <polygon points="265.1 235.13 250.14 235.42 250.12 220.18 265.04 220.12 265.1 235.13"/>
  <polygon points="387.99 235.16 372.84 235.28 372.88 220.06 387.84 220.18 387.99 235.16"/>
  <polygon points="148.7 235.32 133.86 235.38 133.59 220.11 148.79 220.31 148.7 235.32"/>
  <polygon points="140.97 384.93 125.98 384.83 125.97 369.66 140.83 369.64 140.97 384.93"/>
  <polygon points="373.74 384.71 358.69 384.92 358.59 369.69 373.63 369.7 373.74 384.71"/>
  <polygon points="257.54 384.84 242.48 384.85 242.35 369.71 257.57 369.67 257.54 384.84"/>
</svg>