<?xml version="1.0" encoding="UTF-8"?>
<svg id="Capa_1" data-name="Capa 1" xmlns="http://www.w3.org/2000/svg" viewBox="0 0 547.9 505.91">
  <defs>
    <style>
      .cls-1 {
        fill: #fff;
      }
    </style>
  </defs>
  <path d="M453.85,507.04h-5.25c-1.58-1.38-4.7-3.95-4.7-6.31l-.08-38.01h-59.03s-.07,38.01-.07,38.01c0,2.35-3.13,4.93-4.71,6.3h-5.25c-1.57-1.43-4.74-3.81-4.74-6.44l-.03-82.16c0-4.34,3.48-7.11,6.95-7.3,3.97-.22,7.79,2.7,7.8,7.24l.04,29.58h29.53s0-60.95,0-60.95c-.38-17.23-11.86-31.36-28.47-35.5l-44.36-11.06c-20.09,16.4-42.34,27.91-67.48,33.8-25.17-5.91-47.42-17.38-67.5-33.81l-45.09,11.33c-16.32,4.1-27.32,18.48-27.73,35.21v60.98s29.53,0,29.53,0l.03-29.58c0-4.23,3.42-7.08,6.93-7.24,3.92-.19,7.82,2.65,7.82,7.3l-.02,82.16c0,2.63-3.18,5.01-4.74,6.44h-5.25c-1.58-1.38-4.7-3.95-4.71-6.31l-.08-38.01h-59.03s-.08,38.01-.08,38.01c0,2.36-3.13,4.93-4.7,6.31h-5.25c-1.6-1.46-4.72-3.75-4.72-6.47l-.14-111.63c-.05-37.63,24.12-70.19,60.49-79.98,10.79-2.9,21.63-4.7,32.12-8.57,8.47-3.13,14.87-10.59,23.13-14.32l6.09-.65,4.99-20.88c-15.67-14.8-25.76-32.98-29.58-53.65-19.49-5.14-32.01-41.3-15.99-52.88l.22-24.84c.27-30.97,14.15-59.37,44.48-70.6,32.09-11.89,62.8-.71,93.79-11.4,16.77-5.79,16.81-16.76,23.61-16.73,2.32.01,4.84,1.25,6.74,2.96,32.33,29.09,39.5,79.17,38.4,120.7,12.4,10.02,6.19,31.19-1.71,42.11-3.75,5.18-8.81,8.48-14.74,10.84-3.88,20.78-14.14,38.64-29.39,53.58l4.97,20.79,6.65.86c28.78,19.19,21.08,14.03,53.36,22.28,36.49,9.32,61.76,41.59,61.74,79.47l-.06,112.53c0,2.72-3.14,5.01-4.73,6.47ZM220.9,110.46c8.93,3.86,18.53,5.33,28.18,6.08l55.72,4.35c9.72.76,19.12,2.26,28.35,4.85,24.7,6.94,21.86,36.71,29.79,29.54.82-33.15-5.01-77.56-29.11-102.62-19.14,19.51-51.12,18.24-76.43,18.67-11.69-.13-22.8.48-33.78,3.92-27.32,8.57-37.99,32.65-38.16,59.75l-.12,20.3c1.46,1.28,4.41,2.21,6.39,1.91,8.62-11.57,15.29-25.01,15.66-39.64.1-3.78,1.34-7.07,4.09-8.48,3.27-1.68,5.92-.15,9.43,1.37ZM347.79,196.53l.13-27.47c-2.61-7.52-5.66-14.72-9.48-21.76-2.09-3.85-5.79-6.7-10.16-7.75-9.54-2.28-18.87-3.39-28.67-4.34l-45.86-3.31c-11.08-.8-21.52-2.65-32.3-5.19-3.02,16.59-10.63,30.98-21.3,43.48v29.5c.68,11.99,4.03,22.84,9.89,33.29,10.97,18.7,27.38,33.21,47.38,41.52,11.09,4.61,22.17,4.71,33.45.14,30.4-12.32,56.74-43.21,56.91-78.12ZM185.32,172.09c-.65-1.65-6.14-2.9-6.6-1.27-1.83,7.78.86,16.12,6.55,21.78l.06-20.52ZM362.77,192.54c5.88-6.18,8.25-14.11,6.45-21.74-.7-1.57-5.42-.25-6.67,1.14l.22,20.6ZM325.84,299.76l-6.67-24.08c-34.53,23.34-56.29,22.26-90.28-.22l-5.15,19.22-1.54,5.51c15.96,13.64,32.36,21.31,51.8,29.13,18.47-7.42,37.85-16.28,51.85-29.56ZM342.8,303.47c-17.29,20.33-44.85,32.59-68.82,41.52-24.87-9.27-51.44-21.33-68.91-41.54l-8.91,6.07c20.76,24.14,47.15,41.3,77.83,49.57,30.71-8.26,57.13-25.36,77.85-49.57l-9.03-6.05ZM118.89,447.87l.08-60.87c.03-23.19,15.72-43.56,38.06-49.28l36-9.21-10.68-12.44-28.39,7.12c-29.15,7.32-49.71,33.52-49.76,63.8l-.1,60.97,14.78-.1ZM429.08,447.95h14.76s0-59.99,0-59.99c0-31.02-20.63-57.51-50.6-65.01l-27.59-6.91-10.72,12.49,34.66,8.72c22.44,5.65,39.27,25.23,39.33,48.85l.16,61.84Z"/>
  <path class="cls-1" d="M374.75,507.04h-201.53c1.56-1.43,4.74-3.81,4.74-6.44l.02-82.16c0-4.65-3.9-7.49-7.82-7.3-3.51.17-6.93,3.02-6.93,7.24l-.03,29.58h-29.53s0-60.98,0-60.98c.41-16.73,11.41-31.11,27.73-35.21l45.09-11.33c20.09,16.43,42.34,27.9,67.5,33.81,25.13-5.89,47.39-17.4,67.48-33.8l44.36,11.06c16.61,4.14,28.08,18.27,28.47,35.5v60.95s-29.53,0-29.53,0l-.04-29.58c0-4.54-3.83-7.47-7.8-7.24-3.47.2-6.95,2.96-6.95,7.3l.03,82.16c0,2.63,3.17,5.01,4.74,6.44ZM327.48,411.84c-12.67,3.3-19.06,16.08-15.64,27.64s15.26,18.11,26.67,15.17,19.09-15.2,15.96-27.06-14.56-18.99-26.99-15.75Z"/>
  <path class="cls-1" d="M167.97,507.04h-68.6c1.58-1.38,4.7-3.95,4.7-6.31l.08-38.01h59.03s.08,38.01.08,38.01c0,2.36,3.12,4.93,4.71,6.31Z"/>
  <path class="cls-1" d="M448.6,507.04h-68.6c1.58-1.38,4.71-3.95,4.71-6.3l.07-38.01h59.03s.08,38.01.08,38.01c0,2.36,3.13,4.93,4.7,6.31Z"/>
  <path class="cls-1" d="M347.79,196.53c-.17,34.91-26.5,65.8-56.91,78.12-11.29,4.57-22.36,4.47-33.45-.14-20-8.32-36.41-22.82-47.38-41.52-5.86-10.45-9.21-21.3-9.9-33.29v-29.5c10.67-12.5,18.28-26.9,21.3-43.48,10.78,2.54,21.22,4.39,32.3,5.19l45.86,3.31c9.79.96,19.13,2.06,28.67,4.34,4.37,1.04,8.06,3.89,10.16,7.75,3.82,7.04,6.87,14.24,9.48,21.76l-.13,27.47Z"/>
  <path class="cls-1" d="M220.9,110.46c-3.51-1.52-6.15-3.05-9.43-1.37-2.75,1.41-4,4.71-4.09,8.48-.37,14.63-7.04,28.06-15.66,39.64-1.98.29-4.93-.64-6.39-1.91l.12-20.3c.17-27.1,10.84-51.18,38.16-59.75,10.98-3.44,22.09-4.05,33.78-3.92,25.32-.43,57.29.84,76.43-18.67,24.1,25.06,29.93,69.47,29.11,102.62-7.93,7.17-5.09-22.59-29.79-29.54-9.23-2.59-18.63-4.09-28.35-4.85l-55.72-4.35c-9.64-.75-19.24-2.22-28.18-6.08ZM287.86,100.7c32.68,1.26,52.79-19.82,42.28-27.69-2.89-2.17-7.42-2.13-9.98,1.12-15.18,19.24-37.92,5.15-38.71,18.96-.19,3.22,2.16,7.46,6.41,7.62Z"/>
  <path class="cls-1" d="M325.84,299.76c-13.99,13.29-33.38,22.14-51.85,29.56-19.44-7.82-35.84-15.49-51.8-29.13l1.54-5.51,5.15-19.22c33.99,22.48,55.75,23.56,90.28.22l6.67,24.08Z"/>
  <path class="cls-1" d="M429.08,447.95l-.16-61.84c-.06-23.62-16.89-43.2-39.33-48.85l-34.66-8.72,10.72-12.49,27.59,6.91c29.98,7.5,50.61,33.99,50.6,65.01v59.99s-14.76,0-14.76,0Z"/>
  <path class="cls-1" d="M118.89,447.87l-14.78.1.1-60.97c.05-30.28,20.61-56.49,49.76-63.8l28.39-7.12,10.68,12.44-36,9.21c-22.34,5.72-38.03,26.08-38.06,49.28l-.08,60.87Z"/>
  <path class="cls-1" d="M342.8,303.47l9.03,6.05c-20.72,24.21-47.14,41.31-77.85,49.57-30.68-8.27-57.07-25.43-77.83-49.57l8.91-6.07c17.47,20.21,44.05,32.27,68.91,41.54,23.97-8.93,51.54-21.19,68.82-41.52Z"/>
  <path class="cls-1" d="M185.32,172.09l-.06,20.52c-5.69-5.66-8.38-14-6.55-21.78.47-1.64,5.95-.38,6.6,1.27Z"/>
  <path class="cls-1" d="M362.77,192.54l-.22-20.6c1.25-1.39,5.97-2.7,6.67-1.14,1.8,7.62-.57,15.56-6.45,21.74Z"/>
  <path d="M327.48,411.84c12.43-3.24,23.99,4.38,26.99,15.75s-4.06,23.99-15.96,27.06-23.29-3.75-26.67-15.17,2.96-24.33,15.64-27.64ZM331.57,426.05c-4.32.91-6.64,5.17-5.6,8.99s5.03,6.32,8.95,5.26,6.31-5.05,5.24-8.95c-.97-3.54-4.54-6.15-8.6-5.29Z"/>
  <path d="M287.86,100.7c-4.25-.16-6.6-4.4-6.41-7.62.8-13.81,23.53.28,38.71-18.96,2.56-3.24,7.09-3.29,9.98-1.12,10.51,7.87-9.6,28.95-42.28,27.69Z"/>
  <path class="cls-1" d="M331.57,426.05c4.05-.86,7.63,1.75,8.6,5.29,1.07,3.91-1.4,7.91-5.24,8.95s-7.88-1.35-8.95-5.26,1.28-8.08,5.6-8.99Z"/>
</svg>