<?xml version="1.0" encoding="UTF-8"?>
<svg id="Capa_1" data-name="Capa 1" xmlns="http://www.w3.org/2000/svg" viewBox="0 0 547.9 505.91">
  <defs>
    <style>
      .cls-1 {
        fill: #fff;
      }
    </style>
  </defs>
  <path d="M501.58,249.62v31.61c-.38.6-.68,2.04-.77,3.13-9.23,108.87-96.22,195.88-205.09,205.1-1.1.09-2.54.39-3.14.76h-31.61c-111.24-9.39-200.44-96.31-208.61-209.82-3.61-50.09,11-102.49,40.64-144.15,39.55-55.61,100.97-90.64,169.11-95.22,9.94-.67,19.55-.69,28.79-.07,113.88,7.69,201.3,97.07,210.7,208.64ZM297.92,124.74l81.86-8.3-.05-29.27c-42.75-24.65-91.88-33.41-140.39-24.18l.08,28.51,58.5,33.24ZM441.97,191.62l28.85,5.45c-13.56-38.84-38.46-72.43-71.99-97.24l-.23,22.52,43.36,69.27ZM252.03,200.43l31.08-62.45-52.42-29.97-64.17,48.12,22.46,52.34,63.05-8.05ZM172.58,217.56l-24.23-56.16-44.64-7.42c-26.44,41.11-37.96,89.9-30.9,139.13l57.9-8.29,41.87-67.26ZM460.16,359.04c22.56-44.37,28.5-93.95,16.8-141.46l-34.97-6.89-24.51,65.4,8.31,83.06,34.37-.1ZM279.19,359.69l24.62-73.84-49.97-66.64-65.28,8.24-41.41,66.46,41.25,74.06,90.79-8.28ZM343.13,403.76l64.2-40.11-7.82-78.59-78.32,7.87-24.12,72.43,46.06,38.41ZM324.47,465.67l7.75-46.62-49.09-40.88-94.01,8.58-25.33,50.81c47.61,31.22,105.29,41.63,160.68,28.1Z"/>
  <polygon class="cls-1" points="279.19 359.69 188.4 367.98 147.16 293.92 188.56 227.46 253.84 219.22 303.81 285.86 279.19 359.69"/>
  <path class="cls-1" d="M324.47,465.67c-55.39,13.53-113.07,3.12-160.68-28.1l25.33-50.81,94.01-8.58,49.09,40.88-7.75,46.62Z"/>
  <path class="cls-1" d="M172.58,217.56l-41.87,67.26-57.9,8.29c-7.06-49.23,4.46-98.03,30.9-139.13l44.64,7.42,24.23,56.16Z"/>
  <polygon class="cls-1" points="343.13 403.76 297.07 365.35 321.19 292.93 399.51 285.06 407.33 363.65 343.13 403.76"/>
  <path class="cls-1" d="M460.16,359.04l-34.37.1-8.31-83.06,24.51-65.4,34.97,6.89c11.7,47.51,5.77,97.09-16.8,141.46Z"/>
  <polygon class="cls-1" points="252.03 200.43 188.98 208.47 166.52 156.13 230.69 108.01 283.11 137.98 252.03 200.43"/>
  <path class="cls-1" d="M297.92,124.74l-58.5-33.24-.08-28.51c48.51-9.22,97.65-.47,140.39,24.18l.05,29.27-81.86,8.3Z"/>
  <path class="cls-1" d="M441.97,191.62l-43.36-69.27.23-22.52c33.53,24.82,58.43,58.4,71.99,97.24l-28.85-5.45Z"/>
</svg>