<svg xmlns="http://www.w3.org/2000/svg" width="24" height="24" viewBox="0 0 24 24" fill="none" stroke="currentColor" stroke-width="2" stroke-linecap="round" stroke-linejoin="round" class="lucide lucide-football"><path d="M10.27 2.27A6.5 6.5 0 0 0 3.73 8.81l5.24 5.24a6.5 6.5 0 0 0 6.54-6.54Z"/><path d="m14.07 14.07 5.24 5.24a6.5 6.5 0 0 1-6.54 6.54l-5.24-5.24a6.5 6.5 0 0 1 6.54-6.54Z"/><path d="m9.31 14.63 4.24-4.24"/><path d="M13.43 10.51 7.9 16.04"/><path d="m14.63 9.31 4.24-4.24"/><path d="M10.51 13.43 16.04 7.9"/><path d="m16.73 16.73 2.83-2.83"/><path d="m4.46 4.46 2.83-2.83"/><path d="M18.81 3.73a6.5 6.5 0 0 0-6.54-6.54l-5.24 5.24a6.5 6.5 0 0 0 6.54 6.54Z"/><path d="m5.24 18.76 5.24-5.24a6.5 6.5 0 0 0-6.54-6.54l-5.24 5.24a6.5 6.5 0 0 0 6.54 6.54Z"/></svg>
