<?xml version="1.0" encoding="UTF-8"?>
<svg id="Capa_1" xmlns="http://www.w3.org/2000/svg" version="1.1" xmlns:cc="http://creativecommons.org/ns#" xmlns:dc="http://purl.org/dc/elements/1.1/" xmlns:rdf="http://www.w3.org/1999/02/22-rdf-syntax-ns#" viewBox="0 0 800 800">
  <!-- Generator: Adobe Illustrator 29.8.2, SVG Export Plug-In . SVG Version: 2.1.1 Build 3)  -->
  <defs>
    <style>
      .st0 {
        fill: #33f;
      }

      .st1 {
        fill: #ffffff;
      }
    </style>
  </defs>
  <path class="st1" d="M201.19,733.82c-8.8,0-15.72-6.92-15.72-15.72v-393.57l-44.01,37.09c-.63.63-1.26.63-1.26,1.26-6.29,3.77-13.2,6.29-20.12,6.29-12.57,0-23.89-6.29-30.81-16.35L22,251.61c-11.32-16.97-6.29-39.61,10.69-50.92L219.42,70.54c1.26-.63,2.51-1.89,4.4-1.89.63,0,17.6-5.66,41.49-6.29h19.49c4.4,0,8.8,1.89,11.32,5.03,3.14,3.14,4.4,7.54,3.77,11.95,0,.63,0,1.89-.63,2.51,1.26,47.15,50.92,91.16,103.74,91.16s102.48-44.01,103.74-91.16c0-.63,0-1.89-.63-2.51-.63-4.4,1.26-8.8,3.77-11.95s6.92-5.03,11.32-5.03h38.35c15.09,0,27.03,6.92,28.29,7.54.63,0,.63.63,1.26.63l180.44,130.14c16.35,10.69,21.38,33.95,10.06,50.92l-67.27,95.56c-6.29,10.06-18.23,16.35-30.81,16.35-7.54,0-14.46-1.89-20.12-6.29-.63,0-.63-.63-1.26-1.26l-40.24-33.32-1.26,395.45c0,8.8-6.92,15.72-15.72,15.72H201.19Z"/>
  <g>
    <rect class="st0" x="359.51" y="180.96" width="80.99" height="539.03"/>
    <polygon class="st0" points="202.2 91.94 9.75 232.51 56.38 296.34 202.2 189.83 202.2 719.99 283.19 719.99 283.19 78.17 202.2 78.17 202.2 91.94"/>
    <polygon class="st0" points="785.7 228.49 601.97 92.13 601.97 78.17 520.98 78.17 520.98 719.99 601.97 719.99 601.97 190.56 738.58 291.96 785.7 228.49"/>
  </g>
  <path d="M560.17,79.97c11.32,0,19.49,5.66,19.49,5.66l180.44,129.51c10.06,6.29,12.57,19.49,5.66,29.55l-67.27,94.93c-3.77,6.29-10.69,9.43-17.6,9.43-3.77,0-8.17-1.26-11.95-3.77l-66.01-54.07-1.26,428.78H201.19v-427.52l-70.41,59.1c-3.77,2.51-7.54,3.77-11.95,3.77-6.92,0-13.83-3.14-17.6-9.43l-66.64-101.22c-6.29-10.06-3.77-22.63,5.66-29.55L226.96,85s15.09-5.03,36.46-5.66h19.49v2.51c0,56.58,57.21,108.77,119.45,108.77s119.45-52.18,119.45-108.77v-2.51h38.35c-.63.63,0,.63,0,.63M560.17,48.54s-.63,0,0,0h-38.35c-8.8,0-16.97,3.77-23.26,10.06-5.66,6.29-8.8,15.09-8.17,23.89v2.51c-1.89,38.35-44.64,74.82-88.02,74.82s-86.13-36.46-88.02-74.82v-2.51c.63-8.8-1.89-17.6-8.17-23.89-5.66-6.29-14.46-10.06-23.26-10.06h-20.12c-25.15.63-43.38,6.29-45.9,6.92-3.14,1.26-5.66,2.51-8.17,4.4L23.26,189.37c-23.89,16.35-30.18,48.41-14.46,72.93l67.27,101.22c10.06,14.46,26.41,23.26,44.01,23.26,10.06,0,20.12-3.14,28.92-8.8,1.26-.63,1.89-1.26,3.14-1.89l18.23-15.72v359.62c0,17.6,13.83,31.44,31.44,31.44h401.11c17.6,0,31.44-13.83,31.44-31.44l.63-362.76,14.46,11.95c.63.63,1.89,1.26,2.51,1.89,8.8,5.66,18.86,8.8,28.92,8.8,17.6,0,33.95-8.8,43.38-23.26l66.64-94.31.63-.63c15.72-23.89,9.43-56.58-14.46-72.3l-176.04-131.4c-.63-.63-1.26-.63-1.89-1.26-1.89-1.26-16.35-9.43-35.21-9.43l-3.77,1.26Z"/>
</svg>